# MagicaVoxel @ Ephtracy

# group
g Bullet4

# material
mtllib Bullet4.mtl
usemtl palette

# normals
vn -1 0 0
vn 1 0 0
vn 0 0 1
vn 0 0 -1
vn 0 -1 0
vn 0 1 0

# texcoords
vt 0.0449219 0.5
vt 0.115234 0.5
vt 0.404297 0.5
vt 0.841797 0.5
vt 0.994141 0.5

# verts
v -7 11 5
v -7 11 4
v -7 16 5
v -7 16 4
v -6 16 5
v -6 16 4
v -6 19 5
v -6 19 4
v -5 8 5
v -5 8 4
v -5 11 5
v -5 11 4
v -4 7 5
v -4 7 4
v -4 8 5
v -4 8 4
v -4 19 5
v -4 19 4
v -4 32 5
v -4 32 4
v -3 6 5
v -3 6 4
v -3 7 5
v -3 7 4
v -3 32 5
v -3 32 4
v -3 33 5
v -3 33 4
v -2 3 5
v -2 3 4
v -2 6 5
v -2 6 4
v -2 33 5
v -2 33 4
v -2 34 5
v -2 34 4
v -1 2 5
v -1 2 4
v -1 3 5
v -1 3 4
v -1 34 5
v -1 34 4
v -1 35 5
v -1 35 4
v 0 1 5
v 0 1 4
v 0 2 5
v 0 2 4
v 0 35 5
v 0 35 4
v 0 36 5
v 0 36 4
v 2 1 5
v 2 1 4
v 2 2 5
v 2 2 4
v 2 35 5
v 2 35 4
v 2 36 5
v 2 36 4
v 3 2 5
v 3 2 4
v 3 3 5
v 3 3 4
v 3 34 5
v 3 34 4
v 3 35 5
v 3 35 4
v 4 3 5
v 4 3 4
v 4 6 5
v 4 6 4
v 4 33 5
v 4 33 4
v 4 34 5
v 4 34 4
v 5 6 5
v 5 6 4
v 5 7 5
v 5 7 4
v 5 32 5
v 5 32 4
v 5 33 5
v 5 33 4
v 6 7 5
v 6 7 4
v 6 8 5
v 6 8 4
v 6 19 5
v 6 19 4
v 6 32 5
v 6 32 4
v 7 8 5
v 7 8 4
v 7 11 5
v 7 11 4
v 8 16 5
v 8 16 4
v 8 19 5
v 8 19 4
v 9 11 5
v 9 11 4
v 9 16 5
v 9 16 4
v -7 11 5
v -7 16 5
v -6 12 5
v -6 16 5
v -6 19 5
v -5 8 5
v -5 11 5
v -4 7 5
v -4 8 5
v -4 11 5
v -4 12 5
v -4 13 5
v -4 16 5
v -4 19 5
v -4 32 5
v -3 6 5
v -3 7 5
v -3 14 5
v -3 32 5
v -3 33 5
v -2 3 5
v -2 6 5
v -2 7 5
v -2 8 5
v -2 11 5
v -2 32 5
v -2 33 5
v -2 34 5
v -1 2 5
v -1 3 5
v -1 6 5
v -1 7 5
v -1 8 5
v -1 9 5
v -1 11 5
v -1 13 5
v -1 14 5
v -1 16 5
v -1 25 5
v -1 29 5
v -1 33 5
v -1 34 5
v -1 35 5
v 0 1 5
v 0 2 5
v 0 8 5
v 0 9 5
v 0 16 5
v 0 17 5
v 0 34 5
v 0 35 5
v 0 36 5
v 2 1 5
v 2 2 5
v 2 8 5
v 2 9 5
v 2 16 5
v 2 17 5
v 2 34 5
v 2 35 5
v 2 36 5
v 3 2 5
v 3 3 5
v 3 6 5
v 3 7 5
v 3 8 5
v 3 9 5
v 3 11 5
v 3 13 5
v 3 14 5
v 3 16 5
v 3 25 5
v 3 29 5
v 3 33 5
v 3 34 5
v 3 35 5
v 4 3 5
v 4 6 5
v 4 7 5
v 4 8 5
v 4 11 5
v 4 32 5
v 4 33 5
v 4 34 5
v 5 6 5
v 5 7 5
v 5 14 5
v 5 32 5
v 5 33 5
v 6 7 5
v 6 8 5
v 6 11 5
v 6 12 5
v 6 13 5
v 6 16 5
v 6 19 5
v 6 32 5
v 7 8 5
v 7 11 5
v 8 12 5
v 8 16 5
v 8 19 5
v 9 11 5
v 9 16 5
v -7 11 4
v -7 16 4
v -6 12 4
v -6 16 4
v -6 19 4
v -5 8 4
v -5 11 4
v -4 7 4
v -4 8 4
v -4 11 4
v -4 12 4
v -4 13 4
v -4 16 4
v -4 19 4
v -4 32 4
v -3 6 4
v -3 7 4
v -3 14 4
v -3 32 4
v -3 33 4
v -2 3 4
v -2 6 4
v -2 7 4
v -2 8 4
v -2 11 4
v -2 32 4
v -2 33 4
v -2 34 4
v -1 2 4
v -1 3 4
v -1 6 4
v -1 7 4
v -1 8 4
v -1 9 4
v -1 11 4
v -1 13 4
v -1 14 4
v -1 16 4
v -1 25 4
v -1 29 4
v -1 33 4
v -1 34 4
v -1 35 4
v 0 1 4
v 0 2 4
v 0 8 4
v 0 9 4
v 0 16 4
v 0 17 4
v 0 34 4
v 0 35 4
v 0 36 4
v 2 1 4
v 2 2 4
v 2 8 4
v 2 9 4
v 2 16 4
v 2 17 4
v 2 34 4
v 2 35 4
v 2 36 4
v 3 2 4
v 3 3 4
v 3 6 4
v 3 7 4
v 3 8 4
v 3 9 4
v 3 11 4
v 3 13 4
v 3 14 4
v 3 16 4
v 3 25 4
v 3 29 4
v 3 33 4
v 3 34 4
v 3 35 4
v 4 3 4
v 4 6 4
v 4 7 4
v 4 8 4
v 4 11 4
v 4 32 4
v 4 33 4
v 4 34 4
v 5 6 4
v 5 7 4
v 5 14 4
v 5 32 4
v 5 33 4
v 6 7 4
v 6 8 4
v 6 11 4
v 6 12 4
v 6 13 4
v 6 16 4
v 6 19 4
v 6 32 4
v 7 8 4
v 7 11 4
v 8 12 4
v 8 16 4
v 8 19 4
v 9 11 4
v 9 16 4
v 0 1 5
v 2 1 5
v 0 1 4
v 2 1 4
v -1 2 5
v 0 2 5
v 2 2 5
v 3 2 5
v -1 2 4
v 0 2 4
v 2 2 4
v 3 2 4
v -2 3 5
v -1 3 5
v 3 3 5
v 4 3 5
v -2 3 4
v -1 3 4
v 3 3 4
v 4 3 4
v -3 6 5
v -2 6 5
v 4 6 5
v 5 6 5
v -3 6 4
v -2 6 4
v 4 6 4
v 5 6 4
v -4 7 5
v -3 7 5
v 5 7 5
v 6 7 5
v -4 7 4
v -3 7 4
v 5 7 4
v 6 7 4
v -5 8 5
v -4 8 5
v 6 8 5
v 7 8 5
v -5 8 4
v -4 8 4
v 6 8 4
v 7 8 4
v -7 11 5
v -5 11 5
v 7 11 5
v 9 11 5
v -7 11 4
v -5 11 4
v 7 11 4
v 9 11 4
v -7 16 5
v -6 16 5
v 8 16 5
v 9 16 5
v -7 16 4
v -6 16 4
v 8 16 4
v 9 16 4
v -6 19 5
v -4 19 5
v 6 19 5
v 8 19 5
v -6 19 4
v -4 19 4
v 6 19 4
v 8 19 4
v -4 32 5
v -3 32 5
v 5 32 5
v 6 32 5
v -4 32 4
v -3 32 4
v 5 32 4
v 6 32 4
v -3 33 5
v -2 33 5
v 4 33 5
v 5 33 5
v -3 33 4
v -2 33 4
v 4 33 4
v 5 33 4
v -2 34 5
v -1 34 5
v 3 34 5
v 4 34 5
v -2 34 4
v -1 34 4
v 3 34 4
v 4 34 4
v -1 35 5
v 0 35 5
v 2 35 5
v 3 35 5
v -1 35 4
v 0 35 4
v 2 35 4
v 3 35 4
v 0 36 5
v 2 36 5
v 0 36 4
v 2 36 4

# faces
f 3/5/1 2/5/1 1/5/1
f 4/5/1 2/5/1 3/5/1
f 7/5/1 6/5/1 5/5/1
f 8/5/1 6/5/1 7/5/1
f 11/4/1 10/4/1 9/4/1
f 12/4/1 10/4/1 11/4/1
f 15/4/1 14/4/1 13/4/1
f 16/4/1 14/4/1 15/4/1
f 19/5/1 18/5/1 17/5/1
f 20/5/1 18/5/1 19/5/1
f 23/4/1 22/4/1 21/4/1
f 24/4/1 22/4/1 23/4/1
f 27/5/1 26/5/1 25/5/1
f 28/5/1 26/5/1 27/5/1
f 31/4/1 30/4/1 29/4/1
f 32/4/1 30/4/1 31/4/1
f 35/5/1 34/5/1 33/5/1
f 36/5/1 34/5/1 35/5/1
f 39/4/1 38/4/1 37/4/1
f 40/4/1 38/4/1 39/4/1
f 43/5/1 42/5/1 41/5/1
f 44/5/1 42/5/1 43/5/1
f 47/4/1 46/4/1 45/4/1
f 48/4/1 46/4/1 47/4/1
f 51/5/1 50/5/1 49/5/1
f 52/5/1 50/5/1 51/5/1
f 53/4/2 54/4/2 55/4/2
f 55/4/2 54/4/2 56/4/2
f 57/5/2 58/5/2 59/5/2
f 59/5/2 58/5/2 60/5/2
f 61/4/2 62/4/2 63/4/2
f 63/4/2 62/4/2 64/4/2
f 65/5/2 66/5/2 67/5/2
f 67/5/2 66/5/2 68/5/2
f 69/4/2 70/4/2 71/4/2
f 71/4/2 70/4/2 72/4/2
f 73/5/2 74/5/2 75/5/2
f 75/5/2 74/5/2 76/5/2
f 77/4/2 78/4/2 79/4/2
f 79/4/2 78/4/2 80/4/2
f 81/5/2 82/5/2 83/5/2
f 83/5/2 82/5/2 84/5/2
f 85/4/2 86/4/2 87/4/2
f 87/4/2 86/4/2 88/4/2
f 89/5/2 90/5/2 91/5/2
f 91/5/2 90/5/2 92/5/2
f 93/4/2 94/4/2 95/4/2
f 95/4/2 94/4/2 96/4/2
f 97/5/2 98/5/2 99/5/2
f 99/5/2 98/5/2 100/5/2
f 101/5/2 102/5/2 103/5/2
f 103/5/2 102/5/2 104/5/2
f 107/5/3 106/5/3 105/5/3
f 108/5/3 106/5/3 107/5/3
f 111/5/3 107/5/3 105/5/3
f 113/4/3 111/4/3 110/4/3
f 114/5/3 107/5/3 111/5/3
f 114/4/3 111/4/3 113/4/3
f 115/3/3 108/3/3 107/3/3
f 115/5/3 107/5/3 114/5/3
f 116/3/3 108/3/3 115/3/3
f 117/5/3 109/5/3 108/5/3
f 117/3/3 108/3/3 116/3/3
f 118/5/3 109/5/3 117/5/3
f 121/4/3 113/4/3 112/4/3
f 122/5/3 119/5/3 118/5/3
f 122/5/3 117/5/3 116/5/3
f 122/5/3 118/5/3 117/5/3
f 123/5/3 119/5/3 122/5/3
f 126/4/3 121/4/3 120/4/3
f 127/4/3 113/4/3 121/4/3
f 127/4/3 121/4/3 126/4/3
f 128/1/3 116/1/3 115/1/3
f 128/4/3 113/4/3 127/4/3
f 128/1/3 114/1/3 113/1/3
f 128/1/3 115/1/3 114/1/3
f 129/1/3 116/1/3 128/1/3
f 130/5/3 124/5/3 123/5/3
f 130/3/3 123/3/3 122/3/3
f 131/5/3 124/5/3 130/5/3
f 134/4/3 127/4/3 126/4/3
f 134/4/3 126/4/3 125/4/3
f 135/4/3 127/4/3 134/4/3
f 136/2/3 129/2/3 128/2/3
f 136/4/3 127/4/3 135/4/3
f 136/2/3 128/2/3 127/2/3
f 137/2/3 129/2/3 136/2/3
f 138/2/3 129/2/3 137/2/3
f 139/1/3 116/1/3 129/1/3
f 139/2/3 129/2/3 138/2/3
f 140/5/3 122/5/3 116/5/3
f 140/1/3 116/1/3 139/1/3
f 141/3/3 131/3/3 130/3/3
f 141/5/3 122/5/3 140/5/3
f 141/3/3 130/3/3 122/3/3
f 142/3/3 131/3/3 141/3/3
f 143/3/3 131/3/3 142/3/3
f 144/3/3 131/3/3 143/3/3
f 145/5/3 132/5/3 131/5/3
f 145/3/3 131/3/3 144/3/3
f 146/5/3 132/5/3 145/5/3
f 149/4/3 134/4/3 133/4/3
f 150/2/3 138/2/3 137/2/3
f 150/1/3 137/1/3 136/1/3
f 151/5/3 140/5/3 139/5/3
f 151/2/3 138/2/3 150/2/3
f 151/5/3 139/5/3 138/5/3
f 151/5/3 141/5/3 140/5/3
f 151/5/3 142/5/3 141/5/3
f 152/3/3 143/3/3 142/3/3
f 152/5/3 142/5/3 151/5/3
f 153/3/3 143/3/3 152/3/3
f 154/5/3 147/5/3 146/5/3
f 154/3/3 146/3/3 145/3/3
f 154/3/3 145/3/3 144/3/3
f 155/5/3 147/5/3 154/5/3
f 157/4/3 149/4/3 148/4/3
f 158/4/3 134/4/3 149/4/3
f 158/4/3 149/4/3 157/4/3
f 159/1/3 150/1/3 136/1/3
f 159/5/3 153/5/3 152/5/3
f 159/5/3 152/5/3 151/5/3
f 159/5/3 151/5/3 150/5/3
f 160/5/3 153/5/3 159/5/3
f 161/5/3 153/5/3 160/5/3
f 162/3/3 143/3/3 153/3/3
f 162/5/3 153/5/3 161/5/3
f 163/3/3 155/3/3 154/3/3
f 163/3/3 154/3/3 144/3/3
f 164/5/3 156/5/3 155/5/3
f 164/3/3 155/3/3 163/3/3
f 165/5/3 156/5/3 164/5/3
f 166/4/3 134/4/3 158/4/3
f 167/1/3 135/1/3 134/1/3
f 167/4/3 134/4/3 166/4/3
f 168/2/3 136/2/3 135/2/3
f 168/1/3 135/1/3 167/1/3
f 169/1/3 159/1/3 136/1/3
f 169/2/3 136/2/3 168/2/3
f 170/2/3 160/2/3 159/2/3
f 170/1/3 159/1/3 169/1/3
f 171/5/3 161/5/3 160/5/3
f 171/2/3 160/2/3 170/2/3
f 172/5/3 161/5/3 171/5/3
f 173/5/3 161/5/3 172/5/3
f 174/5/3 161/5/3 173/5/3
f 175/3/3 162/3/3 161/3/3
f 175/5/3 161/5/3 174/5/3
f 176/5/3 144/5/3 143/5/3
f 176/3/3 162/3/3 175/3/3
f 176/3/3 143/3/3 162/3/3
f 177/3/3 163/3/3 144/3/3
f 177/5/3 144/5/3 176/5/3
f 178/3/3 163/3/3 177/3/3
f 179/5/3 164/5/3 163/5/3
f 179/3/3 163/3/3 178/3/3
f 180/5/3 164/5/3 179/5/3
f 181/4/3 168/4/3 167/4/3
f 181/4/3 169/4/3 168/4/3
f 182/4/3 169/4/3 181/4/3
f 183/2/3 170/2/3 169/2/3
f 183/4/3 169/4/3 182/4/3
f 183/2/3 171/2/3 170/2/3
f 183/2/3 172/2/3 171/2/3
f 184/2/3 172/2/3 183/2/3
f 185/1/3 173/1/3 172/1/3
f 185/2/3 172/2/3 184/2/3
f 186/3/3 175/3/3 174/3/3
f 186/3/3 176/3/3 175/3/3
f 186/3/3 178/3/3 177/3/3
f 186/3/3 177/3/3 176/3/3
f 187/5/3 179/5/3 178/5/3
f 187/3/3 178/3/3 186/3/3
f 188/5/3 179/5/3 187/5/3
f 189/4/3 183/4/3 182/4/3
f 189/4/3 184/4/3 183/4/3
f 190/4/3 184/4/3 189/4/3
f 191/5/3 174/5/3 173/5/3
f 191/3/3 186/3/3 174/3/3
f 192/5/3 187/5/3 186/5/3
f 192/3/3 186/3/3 191/3/3
f 193/5/3 187/5/3 192/5/3
f 194/4/3 184/4/3 190/4/3
f 195/1/3 185/1/3 184/1/3
f 195/4/3 184/4/3 194/4/3
f 196/1/3 173/1/3 185/1/3
f 196/1/3 185/1/3 195/1/3
f 197/1/3 173/1/3 196/1/3
f 198/5/3 191/5/3 173/5/3
f 198/1/3 173/1/3 197/1/3
f 198/5/3 192/5/3 191/5/3
f 199/5/3 192/5/3 198/5/3
f 200/5/3 192/5/3 199/5/3
f 201/5/3 192/5/3 200/5/3
f 202/4/3 196/4/3 195/4/3
f 203/5/3 197/5/3 196/5/3
f 203/4/3 196/4/3 202/4/3
f 204/3/3 198/3/3 197/3/3
f 204/5/3 197/5/3 203/5/3
f 204/3/3 199/3/3 198/3/3
f 205/5/3 200/5/3 199/5/3
f 205/3/3 199/3/3 204/3/3
f 206/5/3 200/5/3 205/5/3
f 207/5/3 204/5/3 203/5/3
f 207/5/3 205/5/3 204/5/3
f 208/5/3 205/5/3 207/5/3
f 209/5/4 210/5/4 211/5/4
f 211/5/4 210/5/4 212/5/4
f 209/5/4 211/5/4 215/5/4
f 214/4/4 215/4/4 217/4/4
f 215/5/4 211/5/4 218/5/4
f 217/4/4 215/4/4 218/4/4
f 211/3/4 212/3/4 219/3/4
f 218/5/4 211/5/4 219/5/4
f 219/3/4 212/3/4 220/3/4
f 212/5/4 213/5/4 221/5/4
f 220/3/4 212/3/4 221/3/4
f 221/5/4 213/5/4 222/5/4
f 216/4/4 217/4/4 225/4/4
f 222/5/4 223/5/4 226/5/4
f 220/5/4 221/5/4 226/5/4
f 221/5/4 222/5/4 226/5/4
f 226/5/4 223/5/4 227/5/4
f 224/4/4 225/4/4 230/4/4
f 225/4/4 217/4/4 231/4/4
f 230/4/4 225/4/4 231/4/4
f 219/1/4 220/1/4 232/1/4
f 231/4/4 217/4/4 232/4/4
f 217/1/4 218/1/4 232/1/4
f 218/1/4 219/1/4 232/1/4
f 232/1/4 220/1/4 233/1/4
f 227/5/4 228/5/4 234/5/4
f 226/3/4 227/3/4 234/3/4
f 234/5/4 228/5/4 235/5/4
f 230/4/4 231/4/4 238/4/4
f 229/4/4 230/4/4 238/4/4
f 238/4/4 231/4/4 239/4/4
f 232/2/4 233/2/4 240/2/4
f 239/4/4 231/4/4 240/4/4
f 231/2/4 232/2/4 240/2/4
f 240/2/4 233/2/4 241/2/4
f 241/2/4 233/2/4 242/2/4
f 233/1/4 220/1/4 243/1/4
f 242/2/4 233/2/4 243/2/4
f 220/5/4 226/5/4 244/5/4
f 243/1/4 220/1/4 244/1/4
f 234/3/4 235/3/4 245/3/4
f 244/5/4 226/5/4 245/5/4
f 226/3/4 234/3/4 245/3/4
f 245/3/4 235/3/4 246/3/4
f 246/3/4 235/3/4 247/3/4
f 247/3/4 235/3/4 248/3/4
f 235/5/4 236/5/4 249/5/4
f 248/3/4 235/3/4 249/3/4
f 249/5/4 236/5/4 250/5/4
f 237/4/4 238/4/4 253/4/4
f 241/2/4 242/2/4 254/2/4
f 240/1/4 241/1/4 254/1/4
f 243/5/4 244/5/4 255/5/4
f 254/2/4 242/2/4 255/2/4
f 242/5/4 243/5/4 255/5/4
f 244/5/4 245/5/4 255/5/4
f 245/5/4 246/5/4 255/5/4
f 246/3/4 247/3/4 256/3/4
f 255/5/4 246/5/4 256/5/4
f 256/3/4 247/3/4 257/3/4
f 250/5/4 251/5/4 258/5/4
f 249/3/4 250/3/4 258/3/4
f 248/3/4 249/3/4 258/3/4
f 258/5/4 251/5/4 259/5/4
f 252/4/4 253/4/4 261/4/4
f 253/4/4 238/4/4 262/4/4
f 261/4/4 253/4/4 262/4/4
f 240/1/4 254/1/4 263/1/4
f 256/5/4 257/5/4 263/5/4
f 255/5/4 256/5/4 263/5/4
f 254/5/4 255/5/4 263/5/4
f 263/5/4 257/5/4 264/5/4
f 264/5/4 257/5/4 265/5/4
f 257/3/4 247/3/4 266/3/4
f 265/5/4 257/5/4 266/5/4
f 258/3/4 259/3/4 267/3/4
f 248/3/4 258/3/4 267/3/4
f 259/5/4 260/5/4 268/5/4
f 267/3/4 259/3/4 268/3/4
f 268/5/4 260/5/4 269/5/4
f 262/4/4 238/4/4 270/4/4
f 238/1/4 239/1/4 271/1/4
f 270/4/4 238/4/4 271/4/4
f 239/2/4 240/2/4 272/2/4
f 271/1/4 239/1/4 272/1/4
f 240/1/4 263/1/4 273/1/4
f 272/2/4 240/2/4 273/2/4
f 263/2/4 264/2/4 274/2/4
f 273/1/4 263/1/4 274/1/4
f 264/5/4 265/5/4 275/5/4
f 274/2/4 264/2/4 275/2/4
f 275/5/4 265/5/4 276/5/4
f 276/5/4 265/5/4 277/5/4
f 277/5/4 265/5/4 278/5/4
f 265/3/4 266/3/4 279/3/4
f 278/5/4 265/5/4 279/5/4
f 247/5/4 248/5/4 280/5/4
f 279/3/4 266/3/4 280/3/4
f 266/3/4 247/3/4 280/3/4
f 248/3/4 267/3/4 281/3/4
f 280/5/4 248/5/4 281/5/4
f 281/3/4 267/3/4 282/3/4
f 267/5/4 268/5/4 283/5/4
f 282/3/4 267/3/4 283/3/4
f 283/5/4 268/5/4 284/5/4
f 271/4/4 272/4/4 285/4/4
f 272/4/4 273/4/4 285/4/4
f 285/4/4 273/4/4 286/4/4
f 273/2/4 274/2/4 287/2/4
f 286/4/4 273/4/4 287/4/4
f 274/2/4 275/2/4 287/2/4
f 275/2/4 276/2/4 287/2/4
f 287/2/4 276/2/4 288/2/4
f 276/1/4 277/1/4 289/1/4
f 288/2/4 276/2/4 289/2/4
f 278/3/4 279/3/4 290/3/4
f 279/3/4 280/3/4 290/3/4
f 281/3/4 282/3/4 290/3/4
f 280/3/4 281/3/4 290/3/4
f 282/5/4 283/5/4 291/5/4
f 290/3/4 282/3/4 291/3/4
f 291/5/4 283/5/4 292/5/4
f 286/4/4 287/4/4 293/4/4
f 287/4/4 288/4/4 293/4/4
f 293/4/4 288/4/4 294/4/4
f 277/5/4 278/5/4 295/5/4
f 278/3/4 290/3/4 295/3/4
f 290/5/4 291/5/4 296/5/4
f 295/3/4 290/3/4 296/3/4
f 296/5/4 291/5/4 297/5/4
f 294/4/4 288/4/4 298/4/4
f 288/1/4 289/1/4 299/1/4
f 298/4/4 288/4/4 299/4/4
f 289/1/4 277/1/4 300/1/4
f 299/1/4 289/1/4 300/1/4
f 300/1/4 277/1/4 301/1/4
f 277/5/4 295/5/4 302/5/4
f 301/1/4 277/1/4 302/1/4
f 295/5/4 296/5/4 302/5/4
f 302/5/4 296/5/4 303/5/4
f 303/5/4 296/5/4 304/5/4
f 304/5/4 296/5/4 305/5/4
f 299/4/4 300/4/4 306/4/4
f 300/5/4 301/5/4 307/5/4
f 306/4/4 300/4/4 307/4/4
f 301/3/4 302/3/4 308/3/4
f 307/5/4 301/5/4 308/5/4
f 302/3/4 303/3/4 308/3/4
f 303/5/4 304/5/4 309/5/4
f 308/3/4 303/3/4 309/3/4
f 309/5/4 304/5/4 310/5/4
f 307/5/4 308/5/4 311/5/4
f 308/5/4 309/5/4 311/5/4
f 311/5/4 309/5/4 312/5/4
f 315/4/5 314/4/5 313/4/5
f 316/4/5 314/4/5 315/4/5
f 321/4/5 318/4/5 317/4/5
f 322/4/5 318/4/5 321/4/5
f 323/4/5 320/4/5 319/4/5
f 324/4/5 320/4/5 323/4/5
f 329/4/5 326/4/5 325/4/5
f 330/4/5 326/4/5 329/4/5
f 331/4/5 328/4/5 327/4/5
f 332/4/5 328/4/5 331/4/5
f 337/4/5 334/4/5 333/4/5
f 338/4/5 334/4/5 337/4/5
f 339/4/5 336/4/5 335/4/5
f 340/4/5 336/4/5 339/4/5
f 345/4/5 342/4/5 341/4/5
f 346/4/5 342/4/5 345/4/5
f 347/4/5 344/4/5 343/4/5
f 348/4/5 344/4/5 347/4/5
f 353/4/5 350/4/5 349/4/5
f 354/4/5 350/4/5 353/4/5
f 355/4/5 352/4/5 351/4/5
f 356/4/5 352/4/5 355/4/5
f 361/5/5 358/5/5 357/5/5
f 362/5/5 358/5/5 361/5/5
f 363/5/5 360/5/5 359/5/5
f 364/5/5 360/5/5 363/5/5
f 365/5/6 366/5/6 369/5/6
f 369/5/6 366/5/6 370/5/6
f 367/5/6 368/5/6 371/5/6
f 371/5/6 368/5/6 372/5/6
f 373/5/6 374/5/6 377/5/6
f 377/5/6 374/5/6 378/5/6
f 375/5/6 376/5/6 379/5/6
f 379/5/6 376/5/6 380/5/6
f 381/5/6 382/5/6 385/5/6
f 385/5/6 382/5/6 386/5/6
f 383/5/6 384/5/6 387/5/6
f 387/5/6 384/5/6 388/5/6
f 389/5/6 390/5/6 393/5/6
f 393/5/6 390/5/6 394/5/6
f 391/5/6 392/5/6 395/5/6
f 395/5/6 392/5/6 396/5/6
f 397/5/6 398/5/6 401/5/6
f 401/5/6 398/5/6 402/5/6
f 399/5/6 400/5/6 403/5/6
f 403/5/6 400/5/6 404/5/6
f 405/5/6 406/5/6 409/5/6
f 409/5/6 406/5/6 410/5/6
f 407/5/6 408/5/6 411/5/6
f 411/5/6 408/5/6 412/5/6
f 413/5/6 414/5/6 415/5/6
f 415/5/6 414/5/6 416/5/6
